<?xml version="1.0" encoding="utf-8"?>
<!-- Generator: Adobe Illustrator 28.3.0, SVG Export Plug-In . SVG Version: 6.00 Build 0)  -->
<svg version="1.1" id="Capa_1" xmlns="http://www.w3.org/2000/svg" xmlns:xlink="http://www.w3.org/1999/xlink" x="0px" y="0px"
	 viewBox="0 0 754.2 138.3" style="enable-background:new 0 0 754.2 138.3;" xml:space="preserve">
<style type="text/css">
	.st0{fill:#F3C200;}
	.st1{fill:#FFFFFF;}
</style>
<rect x="162.7" y="6.2" class="st0" width="111.9" height="125.9"/>
<g>
	<path class="st1" d="M7.1,34.1V11.8h96.4v22.3H68.9v92.5H41.8V34.1H7.1z"/>
	<path class="st1" d="M145.1,11.8v114.8h-27.1V11.8H145.1z"/>
	<path class="st1" d="M246.5,86.1h26.9c-0.4,4.3-1.5,9-3.2,14.1s-4.5,9.9-8.3,14.3c-3.8,4.4-9,8-15.6,11c-6.6,2.9-14.9,4.4-25.1,4.4
		c-7.3,0-14.4-0.9-21.1-2.8c-6.8-1.9-12.8-5.1-18-9.6c-5.2-4.5-9.4-10.6-12.5-18c-3.1-7.5-4.7-16.9-4.7-28.1
		c0-10.1,1.1-18.6,3.3-25.7s5-12.9,8.5-17.5c3.5-4.7,7.4-8.3,11.6-10.9s8.4-4.6,12.5-5.9s7.9-2.1,11.3-2.4c3.4-0.3,6.1-0.4,8-0.4
		c10.2,0,18.5,1.4,25.2,4.3c6.6,2.8,11.9,6.4,15.7,10.6s6.6,8.8,8.2,13.7c1.6,4.9,2.5,9.5,2.7,13.8h-26.6c-0.7-4.8-2-8.6-3.9-11.2
		c-2-2.7-4.2-4.7-6.6-6c-2.5-1.3-4.9-2.1-7.4-2.4c-2.5-0.3-4.5-0.4-6-0.4c-1.5,0-3.8,0.2-6.9,0.7c-3.1,0.5-6.1,2-9.1,4.6
		c-3,2.6-5.7,6.5-8,11.8c-2.3,5.3-3.4,12.8-3.4,22.4c0,5.4,0.6,10.3,1.8,14.9c1.2,4.6,3,8.5,5.4,11.8c2.4,3.3,5.4,5.8,8.9,7.7
		s7.5,2.8,12.1,2.8c4.5,0,8.2-0.7,11.1-2.1c3-1.4,5.3-3.2,7.1-5.4c1.8-2.2,3.1-4.5,4-7.1C245.5,90.5,246.1,88.2,246.5,86.1z"/>
	<path class="st1" d="M361.2,11.8H395l-46.1,47.6l49.5,67.2h-33.8l-34.4-49.5l-13,13.1v36.4h-27.1V11.8h27v46.7L361.2,11.8z"/>
	<path class="st1" d="M492.2,57.4v21.1h-56.1v25.7h65.3v22.3h-92.3V11.8h90.7v22.3h-63.6v23.3L492.2,57.4L492.2,57.4z"/>
	<path class="st1" d="M544.7,54.8v71.8h-27V11.8H545l45.2,71.3h0.5V11.8h27v114.8h-27.5L545,54.8H544.7z"/>
	<path class="st1" d="M643.1,11.8h49.3c1.9,0,4.5,0.1,8,0.3s7.2,0.9,11.4,2c4.2,1.2,8.4,2.9,12.7,5.3s8.2,5.7,11.7,9.9
		s6.4,9.6,8.6,16.1s3.4,14.3,3.4,23.6c0,9.1-1,16.8-3,23.1s-4.7,11.6-8,15.9c-3.3,4.3-7,7.6-11.2,10.1c-4.2,2.5-8.4,4.3-12.7,5.6
		s-8.5,2.1-12.6,2.4s-7.7,0.5-10.7,0.5h-46.9L643.1,11.8L643.1,11.8z M670.1,34.1v70.2h17.2c10.6,0,18.5-2.8,23.8-8.4
		c5.2-5.6,7.9-14.4,7.9-26.3c0-8-1-14.3-3.1-18.9s-4.6-8.2-7.6-10.7c-3-2.5-6.3-4-9.8-4.8s-6.7-1.1-9.5-1.1
		C689,34.1,670.1,34.1,670.1,34.1z"/>
</g>
</svg>
